<svg xmlns="http://www.w3.org/2000/svg" viewBox="0 0 3600 3600" width="3600" height="3600"><title>Orbit Study original geometric art for Med Art</title><circle cx="2320.0" cy="1800.0" r="140" fill="none" stroke="#172E40" stroke-width="10" opacity=".84"/><circle cx="2432.5" cy="2005.5" r="164" fill="none" stroke="#567888" stroke-width="15" opacity=".84"/><circle cx="2455.3" cy="2276.1" r="188" fill="none" stroke="#C9AA70" stroke-width="20" opacity=".84"/><circle cx="2361.3" cy="2572.6" r="212" fill="none" stroke="#B67461" stroke-width="10" opacity=".84"/><circle cx="1960.7" cy="2294.5" r="140" fill="none" stroke="#172E40" stroke-width="15" opacity=".84"/><circle cx="1800.0" cy="2465.0" r="164" fill="none" stroke="#567888" stroke-width="20" opacity=".84"/><circle cx="1549.7" cy="2570.4" r="188" fill="none" stroke="#C9AA70" stroke-width="10" opacity=".84"/><circle cx="1238.7" cy="2572.6" r="212" fill="none" stroke="#B67461" stroke-width="15" opacity=".84"/><circle cx="1379.3" cy="2105.6" r="140" fill="none" stroke="#172E40" stroke-width="20" opacity=".84"/><circle cx="1167.5" cy="2005.5" r="164" fill="none" stroke="#567888" stroke-width="10" opacity=".84"/><circle cx="990.0" cy="1800.0" r="188" fill="none" stroke="#C9AA70" stroke-width="15" opacity=".84"/><circle cx="891.7" cy="1504.9" r="212" fill="none" stroke="#B67461" stroke-width="20" opacity=".84"/><circle cx="1379.3" cy="1494.4" r="140" fill="none" stroke="#172E40" stroke-width="10" opacity=".84"/><circle cx="1409.1" cy="1262.0" r="164" fill="none" stroke="#567888" stroke-width="15" opacity=".84"/><circle cx="1549.7" cy="1029.6" r="188" fill="none" stroke="#C9AA70" stroke-width="20" opacity=".84"/><circle cx="1800.0" cy="845.0" r="212" fill="none" stroke="#B67461" stroke-width="10" opacity=".84"/><circle cx="1960.7" cy="1305.5" r="140" fill="none" stroke="#172E40" stroke-width="15" opacity=".84"/><circle cx="2190.9" cy="1262.0" r="164" fill="none" stroke="#567888" stroke-width="20" opacity=".84"/><circle cx="2455.3" cy="1323.9" r="188" fill="none" stroke="#C9AA70" stroke-width="10" opacity=".84"/><circle cx="2708.3" cy="1504.9" r="212" fill="none" stroke="#B67461" stroke-width="15" opacity=".84"/><circle cx="1800" cy="1800" r="300" fill="none" stroke="#172E40" stroke-width="9" opacity=".7"/><circle cx="1800" cy="1800" r="397" fill="none" stroke="#C9AA70" stroke-width="18" opacity=".7"/><circle cx="1800" cy="1800" r="494" fill="none" stroke="#567888" stroke-width="9" opacity=".7"/><circle cx="1800" cy="1800" r="591" fill="none" stroke="#172E40" stroke-width="18" opacity=".7"/><circle cx="1800" cy="1800" r="688" fill="none" stroke="#C9AA70" stroke-width="9" opacity=".7"/><circle cx="1800" cy="1800" r="785" fill="none" stroke="#567888" stroke-width="18" opacity=".7"/><circle cx="1800" cy="1800" r="882" fill="none" stroke="#172E40" stroke-width="9" opacity=".7"/><circle cx="1800" cy="1800" r="979" fill="none" stroke="#C9AA70" stroke-width="18" opacity=".7"/><circle cx="1800" cy="1800" r="1076" fill="none" stroke="#567888" stroke-width="9" opacity=".7"/><circle cx="1800" cy="1800" r="1173" fill="none" stroke="#172E40" stroke-width="18" opacity=".7"/><circle cx="1800" cy="1800" r="1270" fill="none" stroke="#C9AA70" stroke-width="9" opacity=".7"/></svg>
